# xmcd
#
# Track frame offsets:
#	183
#	17755
#	27758
#	40630
#	52018
#	64890
#	77355
#	92858
#	107295
#	122378
#	135360
#	150918
#	165400
#	174098
#	187178
#	199905
#
# Disc length: 2842 seconds
#
# Revision: 1
# Processed by: cddbd v1.4PL0 Copyright (c) Steve Scherf et al.
# Submitted via: audiograbber 1.81.02
#
DISCID=b60b1810
DTITLE=Various Artist - Inni e Canti (Il Fascismo in Italia)
DYEAR=1995
DGENRE=Retro
TTITLE0=Glovinezza
TTITLE1=Fischia Il Sasso (Inno dei Balilla)
TTITLE2=All'Armi: Inno dei Fascisti
TTITLE3=Cantate Dei Legionari (Ce Ne Fregammo Un Di Della Galera)
TTITLE4=Inno Dei Figli Della Lupa
TTITLE5=Noi Tireremo Diritto
TTITLE6=Squadrista a Noi (Me Ne Frego Della Galera)
TTITLE7=Sveglia Dei Bersaglieri Al Campo
TTITLE8=Inno a Roma
TTITLE9=Inno Della Vecchia Guardia (Me Ne Frego Noi Gridiamo Col Pugnale Nella 
TTITLE9=Mano)
TTITLE10=Balde Frecce Nere
TTITLE11=Combattenti a Noi
TTITLE12=Saluto Al Duce
TTITLE13=Demoni Rossi (Inno dei carristi)
TTITLE14=Canzone Azzurra
TTITLE15=La Disperata (Il Nero Gagliardetto Ha Il Motto:"Me Ne Frego")
EXTD=
EXTT0=
EXTT1=
EXTT2=
EXTT3=
EXTT4=
EXTT5=
EXTT6=
EXTT7=
EXTT8=
EXTT9=
EXTT10=
EXTT11=
EXTT12=
EXTT13=
EXTT14=
EXTT15=
PLAYORDER=
